<svg preserveAspectRatio="none" overflow="visible" style="display: block;" width="18.0001" height="20" viewBox="0 0 18.0001 20" fill="none" xmlns="http://www.w3.org/2000/svg">
<path id="Vector" d="M12 15H17L15.595 13.595C15.214 13.2139 14.9999 12.697 15 12.158V9C15.0003 6.45671 13.3977 4.18933 11 3.341V3C11 1.89617 10.1039 1 9.00003 1C7.8962 1 7.00003 1.89617 7.00003 3V3.341C4.67003 4.165 3.00003 6.388 3.00003 9V12.159C3.00003 12.697 2.78603 13.214 2.40503 13.595L1.00003 15H6.00003M12 15V16C12 17.6557 10.6558 19 9.00003 19C7.34428 19 6.00003 17.6557 6.00003 16V15M12 15H6.00003" stroke="#475569" stroke-width="2" stroke-linecap="round" stroke-linejoin="round"/>
</svg>
